<svg xmlns="http://www.w3.org/2000/svg" xmlns:xlink="http://www.w3.org/1999/xlink" width="500" zoomAndPan="magnify" viewBox="0 0 375 374.999991" height="500" preserveAspectRatio="xMidYMid meet" version="1.0"><defs><g/></defs><path stroke-linecap="round" transform="matrix(0, 0.75, -0.75, 0, 49.498384, 101.0039)" fill="none" stroke-linejoin="miter" d="M 14.00001 13.997846 L 216.661481 13.997846 " stroke="#071108" stroke-width="28" stroke-opacity="1" stroke-miterlimit="4"/><path stroke-linecap="round" transform="matrix(0.000000001309, 0.75, -0.75, 0.000000001309, 91.115571, 163.063672)" fill="none" stroke-linejoin="miter" d="M 13.998439 13.997846 L 133.920322 13.997846 " stroke="#071108" stroke-width="28" stroke-opacity="1" stroke-miterlimit="4"/><path stroke-linecap="round" transform="matrix(0.252893, 0.706077, -0.706077, 0.252893, 121.425897, 155.549815)" fill="none" stroke-linejoin="miter" d="M 14.001778 13.999631 L 143.73484 13.999655 " stroke="#071108" stroke-width="28" stroke-opacity="1" stroke-miterlimit="4"/><g fill="#071108" fill-opacity="1"><g transform="translate(182.267174, 257.847684)"><g><path d="M 5.9375 0 C 5 0 4.238281 -0.1875 3.65625 -0.5625 C 3.082031 -0.9375 2.691406 -1.445312 2.484375 -2.09375 C 2.285156 -2.75 2.285156 -3.476562 2.484375 -4.28125 C 2.691406 -5.082031 3.113281 -5.914062 3.75 -6.78125 L 25.140625 -35.78125 L 25.140625 -33.484375 L 5.375 -33.484375 C 4.332031 -33.484375 3.539062 -33.742188 3 -34.265625 C 2.457031 -34.796875 2.1875 -35.546875 2.1875 -36.515625 C 2.1875 -37.484375 2.457031 -38.21875 3 -38.71875 C 3.539062 -39.226562 4.332031 -39.484375 5.375 -39.484375 L 28.5625 -39.484375 C 29.488281 -39.484375 30.242188 -39.296875 30.828125 -38.921875 C 31.410156 -38.546875 31.800781 -38.039062 32 -37.40625 C 32.207031 -36.769531 32.207031 -36.039062 32 -35.21875 C 31.800781 -34.394531 31.382812 -33.554688 30.75 -32.703125 L 9.359375 -3.75 L 9.359375 -5.984375 L 29.953125 -5.984375 C 31.003906 -5.984375 31.800781 -5.734375 32.34375 -5.234375 C 32.882812 -4.734375 33.15625 -4 33.15625 -3.03125 C 33.15625 -2.050781 32.882812 -1.300781 32.34375 -0.78125 C 31.800781 -0.257812 31.003906 0 29.953125 0 Z M 5.9375 0 "/></g></g></g><g fill="#071108" fill-opacity="1"><g transform="translate(218.94243, 257.847684)"><g><path d="M 7.890625 0.453125 C 6.734375 0.453125 5.847656 0.125 5.234375 -0.53125 C 4.617188 -1.1875 4.3125 -2.09375 4.3125 -3.25 L 4.3125 -36.234375 C 4.3125 -37.429688 4.617188 -38.34375 5.234375 -38.96875 C 5.847656 -39.601562 6.734375 -39.921875 7.890625 -39.921875 C 9.046875 -39.921875 9.929688 -39.601562 10.546875 -38.96875 C 11.171875 -38.34375 11.484375 -37.429688 11.484375 -36.234375 L 11.484375 -3.25 C 11.484375 -2.09375 11.179688 -1.1875 10.578125 -0.53125 C 9.984375 0.125 9.085938 0.453125 7.890625 0.453125 Z M 7.890625 0.453125 "/></g></g></g><g fill="#071108" fill-opacity="1"><g transform="translate(237.532212, 257.847684)"><g><path d="M 5.9375 0 C 5 0 4.238281 -0.1875 3.65625 -0.5625 C 3.082031 -0.9375 2.691406 -1.445312 2.484375 -2.09375 C 2.285156 -2.75 2.285156 -3.476562 2.484375 -4.28125 C 2.691406 -5.082031 3.113281 -5.914062 3.75 -6.78125 L 25.140625 -35.78125 L 25.140625 -33.484375 L 5.375 -33.484375 C 4.332031 -33.484375 3.539062 -33.742188 3 -34.265625 C 2.457031 -34.796875 2.1875 -35.546875 2.1875 -36.515625 C 2.1875 -37.484375 2.457031 -38.21875 3 -38.71875 C 3.539062 -39.226562 4.332031 -39.484375 5.375 -39.484375 L 28.5625 -39.484375 C 29.488281 -39.484375 30.242188 -39.296875 30.828125 -38.921875 C 31.410156 -38.546875 31.800781 -38.039062 32 -37.40625 C 32.207031 -36.769531 32.207031 -36.039062 32 -35.21875 C 31.800781 -34.394531 31.382812 -33.554688 30.75 -32.703125 L 9.359375 -3.75 L 9.359375 -5.984375 L 29.953125 -5.984375 C 31.003906 -5.984375 31.800781 -5.734375 32.34375 -5.234375 C 32.882812 -4.734375 33.15625 -4 33.15625 -3.03125 C 33.15625 -2.050781 32.882812 -1.300781 32.34375 -0.78125 C 31.800781 -0.257812 31.003906 0 29.953125 0 Z M 5.9375 0 "/></g></g></g><g fill="#071108" fill-opacity="1"><g transform="translate(274.207468, 257.847684)"><g><path d="M 7.890625 0.453125 C 6.734375 0.453125 5.847656 0.125 5.234375 -0.53125 C 4.617188 -1.1875 4.3125 -2.09375 4.3125 -3.25 L 4.3125 -36.234375 C 4.3125 -37.429688 4.617188 -38.34375 5.234375 -38.96875 C 5.847656 -39.601562 6.734375 -39.921875 7.890625 -39.921875 C 9.046875 -39.921875 9.929688 -39.601562 10.546875 -38.96875 C 11.171875 -38.34375 11.484375 -37.429688 11.484375 -36.234375 L 11.484375 -23.015625 L 31.8125 -23.015625 L 31.8125 -36.234375 C 31.8125 -37.429688 32.117188 -38.34375 32.734375 -38.96875 C 33.347656 -39.601562 34.234375 -39.921875 35.390625 -39.921875 C 36.546875 -39.921875 37.429688 -39.601562 38.046875 -38.96875 C 38.660156 -38.34375 38.96875 -37.429688 38.96875 -36.234375 L 38.96875 -3.25 C 38.96875 -2.09375 38.660156 -1.1875 38.046875 -0.53125 C 37.429688 0.125 36.546875 0.453125 35.390625 0.453125 C 34.234375 0.453125 33.347656 0.125 32.734375 -0.53125 C 32.117188 -1.1875 31.8125 -2.09375 31.8125 -3.25 L 31.8125 -17.03125 L 11.484375 -17.03125 L 11.484375 -3.25 C 11.484375 -2.09375 11.179688 -1.1875 10.578125 -0.53125 C 9.984375 0.125 9.085938 0.453125 7.890625 0.453125 Z M 7.890625 0.453125 "/></g></g></g><g fill="#071108" fill-opacity="1"><g transform="translate(320.289412, 257.847684)"><g><path d="M 7.890625 0.453125 C 6.734375 0.453125 5.847656 0.125 5.234375 -0.53125 C 4.617188 -1.1875 4.3125 -2.09375 4.3125 -3.25 L 4.3125 -36.234375 C 4.3125 -37.429688 4.617188 -38.34375 5.234375 -38.96875 C 5.847656 -39.601562 6.734375 -39.921875 7.890625 -39.921875 C 9.046875 -39.921875 9.929688 -39.601562 10.546875 -38.96875 C 11.171875 -38.34375 11.484375 -37.429688 11.484375 -36.234375 L 11.484375 -3.25 C 11.484375 -2.09375 11.179688 -1.1875 10.578125 -0.53125 C 9.984375 0.125 9.085938 0.453125 7.890625 0.453125 Z M 7.890625 0.453125 "/></g></g></g></svg>